# xmcd
# 
# Track frame offsets:
#     150
#     18222
#     33013
#     47253
# 
# Disc length: 842
# 
# Revision: 1
# Processed by: cddbd v1.5.2PL0 Copyright (c) Steve Scherf et al.
# Submitted via: BonkEnc v1.0.6
# 
DISCID=1b034804
DTITLE=Superfly - Hi-Five
DYEAR=2008
DGENRE=JPop
TTITLE0=Hi-Five
TTITLE1=Honky Tonk Women
TTITLE2=Bad,Bad Leroy Brown
TTITLE3=Desperado
EXTD=
EXTT0=
EXTT1=
EXTT2=
EXTT3=
PLAYORDER=
